<?xml version="1.0" standalone="no"?><!DOCTYPE svg PUBLIC "-//W3C//DTD SVG 1.1//EN" "http://www.w3.org/Graphics/SVG/1.1/DTD/svg11.dtd"><svg t="1702554416854" class="icon" viewBox="0 0 1024 1024" version="1.1" xmlns="http://www.w3.org/2000/svg" p-id="2412" width="32" height="32" xmlns:xlink="http://www.w3.org/1999/xlink"><path d="M513.09 283.34q-60.17 0-97.91 42.67-37.74 42.67-37.74 128t37.74 128q37.74 42.66 94.63 42.66 20.79 0 40.48-6.56-28.44-19.7-61.26-30.64l28.44-56.88q50.32 17.5 92.99 50.32 20.79-24.07 29.54-55.25t8.75-72.75q0-85.33-37.19-126.9-37.2-41.57-98.47-42.67z m0 0z m439.79 166.29q-5.47-191.45-129.64-317.8Q699.07 5.47 512 0 324.93 5.47 200.76 131.83 76.59 258.18 71.12 449.63q0 102.84 43.22 194.19 43.22 91.34 123.07 156.98 142.22 120.34 307.41 172.31 165.19 51.96 179.41 50.88l-39.38-160.82q120.34-53.61 193.09-163t74.94-250.52z m-218.8 298.66q-22.97-6.56-44.85-18.6-4.38-2.18-65.64-43.76-48.14 21.88-107.21 21.88-112.69 0-177.24-66.73-64.54-66.73-64.54-187.62t64.54-187.62q64.55-66.73 174.5-66.73t173.95 66.73q64 66.73 64 187.07 0 63.45-17.5 112.68-14.22 36.11-43.76 71.11 37.2 26.26 79.86 41.58l-36.1 70.01z m0 0z" p-id="2413"></path></svg>